<svg width="24" height="24" xmlns="http://www.w3.org/2000/svg">
  <path d="M12.004 2.166c-3.205 0-3.584.012-4.85.07-1.17.053-1.805.249-2.228.413-.56.218-.96.478-1.38.898-.42.42-.68.82-.897 1.38-.164.422-.36 1.058-.413 2.228-.058 1.265-.07 1.644-.07 4.849 0 3.204.012 3.583.07 4.849.053 1.17.249 1.805.413 2.228.218.56.478.96.898 1.38.42.42.82.68 1.38.897.422.165 1.058.36 2.228.414 1.265.057 1.644.07 4.849.07 3.204 0 3.583-.013 4.849-.07 1.17-.054 1.805-.25 2.228-.414.56-.217.96-.477 1.38-.897.42-.42.68-.82.897-1.38.165-.423.36-1.058.414-2.228.057-1.266.07-1.645.07-4.85 0-3.204-.013-3.583-.07-4.848-.054-1.17-.25-1.806-.414-2.229a3.718 3.718 0 0 0-.897-1.38c-.42-.42-.82-.68-1.38-.897-.423-.164-1.058-.36-2.228-.413-1.266-.058-1.645-.07-4.85-.07zm0-2.162c3.259 0 3.667.013 4.947.072 1.277.058 2.15.26 2.913.558.79.306 1.458.717 2.126 1.384a5.882 5.882 0 0 1 1.384 2.125c.296.763.5 1.636.557 2.913.059 1.28.073 1.689.073 4.948 0 3.259-.014 3.667-.073 4.947-.058 1.277-.26 2.15-.557 2.913a5.882 5.882 0 0 1-1.384 2.126 5.882 5.882 0 0 1-2.126 1.384c-.763.296-1.636.5-2.913.557-1.28.059-1.688.073-4.947.073-3.26 0-3.668-.014-4.948-.073-1.277-.058-2.15-.26-2.913-.557a5.882 5.882 0 0 1-2.125-1.384 5.882 5.882 0 0 1-1.384-2.126c-.297-.763-.5-1.636-.558-2.913-.059-1.28-.072-1.688-.072-4.947 0-3.26.013-3.668.072-4.948.058-1.277.26-2.15.558-2.913a5.882 5.882 0 0 1 1.384-2.125A5.882 5.882 0 0 1 4.143.634C4.906.337 5.78.134 7.056.076 8.336.017 8.745.004 12.004.004zm0 5.837a6.162 6.162 0 1 1 0 12.325 6.162 6.162 0 0 1 0-12.325zm0 10.163a4 4 0 1 0 0-8 4 4 0 0 0 0 8zm7.845-10.406a1.44 1.44 0 1 1-2.88 0 1.44 1.44 0 0 1 2.88 0z" fill="#FFF" fill-rule="nonzero"/>
</svg>
